<?xml version="1.0" standalone="no"?>
<!DOCTYPE svg PUBLIC "-//W3C//DTD SVG 20010904//EN"
 "http://www.w3.org/TR/2001/REC-SVG-20010904/DTD/svg10.dtd">
<svg version="1.0" xmlns="http://www.w3.org/2000/svg"
 width="1086.000000pt" height="817.000000pt" viewBox="0 0 1086.000000 817.000000"
 preserveAspectRatio="xMidYMid meet">

<g transform="translate(0.000000,817.000000) scale(0.100000,-0.100000)"
fill="#000000" stroke="none">
<path d="M194 8159 c-59 -17 -126 -71 -158 -129 l-31 -55 -3 -490 c-4 -545 -1
-571 62 -659 35 -49 2404 -2473 2465 -2522 22 -17 55 -34 75 -38 90 -17 14
-88 1355 1279 1326 1354 1278 1301 1301 1427 7 37 10 227 8 525 -3 521 -1 502
-74 583 -21 23 -56 51 -78 63 l-41 22 -2425 2 c-1438 1 -2438 -2 -2456 -8z"/>
<path d="M5790 8161 c-53 -17 -109 -52 -139 -88 -61 -73 -61 -78 -61 -613 0
-531 1 -542 58 -628 16 -23 579 -604 1253 -1292 1230 -1256 1255 -1280 1319
-1280 67 0 81 13 1330 1288 1107 1130 1234 1264 1263 1322 l32 65 3 512 c2
507 2 514 -19 563 -13 30 -40 67 -66 90 -87 76 140 70 -2542 69 -1323 0 -2417
-4 -2431 -8z"/>
<path d="M2558 3887 c-45 -26 -2461 -2491 -2500 -2550 -57 -86 -59 -114 -56
-652 3 -484 3 -491 25 -531 30 -56 79 -103 133 -128 l45 -21 2430 0 c2239 0
2433 1 2466 17 57 25 114 83 140 141 24 52 24 52 27 515 2 295 -1 483 -8 520
-23 126 25 73 -1300 1426 -859 875 -1249 1267 -1271 1275 -48 17 -90 13 -131
-12z"/>
<path d="M8154 3893 c-17 -8 -584 -580 -1260 -1269 -1084 -1105 -1233 -1261
-1264 -1320 l-35 -67 -3 -505 c-3 -556 -3 -555 58 -632 18 -22 55 -51 88 -67
l57 -28 2430 0 2430 0 41 22 c66 35 101 70 129 127 l26 53 -3 519 -3 519 -27
55 c-23 46 -240 273 -1268 1322 -839 856 -1251 1270 -1272 1277 -42 15 -87 13
-124 -6z"/>
</g>
</svg>
