<svg width="1312" height="1036" viewBox="0 0 1312 1036" fill="none" xmlns="http://www.w3.org/2000/svg">
<mask id="path-1-inside-1_2529_2" fill="white">
<path d="M307.23 544.166C314.566 536.681 326.618 536.681 333.953 544.166L613.684 829.604C621.68 837.764 626.159 848.734 626.159 860.158V960.819C626.159 978.04 612.199 992 594.979 992H46.2051C28.9849 992 15.0254 978.04 15.0254 960.819V860.158C15.0254 848.734 19.5046 837.764 27.501 829.604L307.23 544.166ZM955.717 544.166C963.052 536.681 975.105 536.681 982.44 544.166L1262.17 829.604C1270.17 837.764 1274.65 848.734 1274.65 860.158V960.819C1274.65 978.04 1260.69 992 1243.46 992H694.692C677.472 992 663.512 978.04 663.512 960.819V860.158C663.512 848.734 667.991 837.764 675.987 829.604L955.717 544.166ZM1243.44 44.2285C1260.66 44.2285 1274.62 58.1888 1274.62 75.4092V176.07C1274.62 187.495 1270.14 198.464 1262.14 206.624L982.415 492.062C975.08 499.548 963.027 499.548 955.691 492.062L675.962 206.624C667.965 198.464 663.486 187.495 663.486 176.07V75.4092C663.486 58.189 677.446 44.2288 694.666 44.2285H1243.44ZM594.953 44C612.173 44.0002 626.133 57.9604 626.133 75.1807V175.842C626.133 187.266 621.655 198.236 613.658 206.396L333.928 491.834C326.592 499.319 314.54 499.319 307.205 491.834L27.4746 206.396C19.4782 198.236 15 187.266 15 175.842V75.1807C15 57.9604 28.9594 44.0001 46.1797 44H594.953Z"/>
</mask>
<path d="M307.23 544.166L305.802 542.766H305.802L307.23 544.166ZM333.953 544.166L335.382 542.766L335.382 542.766L333.953 544.166ZM613.684 829.604L615.112 828.205V828.205L613.684 829.604ZM626.159 860.158H628.159V860.158H626.159ZM626.159 960.819H628.159V960.819H626.159ZM594.979 992V994V994V992ZM46.2051 992L46.2051 994H46.2051V992ZM15.0254 960.819H17.0254V960.819H15.0254ZM15.0254 860.158H13.0254V860.158H15.0254ZM27.501 829.604L28.9294 831.004V831.004L27.501 829.604ZM955.717 544.166L954.288 542.766V542.766L955.717 544.166ZM982.44 544.166L983.869 542.766V542.766L982.44 544.166ZM1262.17 829.604L1260.74 831.004V831.004L1262.17 829.604ZM1274.65 860.158H1276.65V860.158H1274.65ZM1274.65 960.819H1276.65V960.819H1274.65ZM1243.46 992V990V990V992ZM694.692 992V994V994V992ZM663.512 960.819H665.512V960.819H663.512ZM663.512 860.158H661.512V860.158H663.512ZM675.987 829.604L677.416 831.004V831.004L675.987 829.604ZM1243.44 44.2285V42.2285V42.2285V44.2285ZM1274.62 75.4092H1276.62V75.4092L1274.62 75.4092ZM1262.14 206.624L1263.57 208.024V208.024L1262.14 206.624ZM982.415 492.062L983.843 493.462V493.462L982.415 492.062ZM955.691 492.062L954.263 493.462V493.462L955.691 492.062ZM675.962 206.624L677.39 205.224V205.224L675.962 206.624ZM663.486 75.4092L661.486 75.4092V75.4092H663.486ZM694.666 44.2285V42.2285V42.2285V44.2285ZM594.953 44V42V42V44ZM626.133 175.842H628.133V175.842H626.133ZM613.658 206.396L615.087 207.795V207.795L613.658 206.396ZM333.928 491.834L335.356 493.234H335.356L333.928 491.834ZM307.205 491.834L305.777 493.234H305.777L307.205 491.834ZM27.4746 206.396L26.0462 207.795H26.0462L27.4746 206.396ZM15 175.842H13V175.842H15ZM46.1797 44V42H46.1797L46.1797 44ZM307.23 544.166L308.659 545.566C315.21 538.881 325.974 538.881 332.525 545.566L333.953 544.166L335.382 542.766C327.262 534.481 313.922 534.481 305.802 542.766L307.23 544.166ZM333.953 544.166L332.525 545.566L612.255 831.004L613.684 829.604L615.112 828.205L335.382 542.766L333.953 544.166ZM613.684 829.604L612.255 831.004C619.885 838.79 624.159 849.257 624.159 860.158H626.159H628.159C628.159 848.21 623.475 836.738 615.112 828.205L613.684 829.604ZM626.159 860.158H624.159V960.819H626.159H628.159V860.158H626.159ZM626.159 960.819H624.159C624.159 976.935 611.094 990 594.979 990V992V994C613.303 994 628.159 979.144 628.159 960.819H626.159ZM594.979 992V990H46.2051V992V994H594.979V992ZM46.2051 992L46.2051 990C30.0895 990 17.0254 976.935 17.0254 960.819H15.0254H13.0254C13.0254 979.144 27.8802 994 46.2051 994L46.2051 992ZM15.0254 960.819H17.0254V860.158H15.0254H13.0254V960.819H15.0254ZM15.0254 860.158H17.0254C17.0254 849.257 21.2994 838.79 28.9294 831.004L27.501 829.604L26.0726 828.205C17.7098 836.738 13.0254 848.21 13.0254 860.158H15.0254ZM27.501 829.604L28.9294 831.004L308.659 545.566L307.23 544.166L305.802 542.766L26.0726 828.205L27.501 829.604ZM955.717 544.166L957.145 545.566C963.696 538.881 974.461 538.881 981.012 545.566L982.44 544.166L983.869 542.766C975.749 534.481 962.408 534.481 954.288 542.766L955.717 544.166ZM982.44 544.166L981.012 545.566L1260.74 831.004L1262.17 829.604L1263.6 828.205L983.869 542.766L982.44 544.166ZM1262.17 829.604L1260.74 831.004C1268.37 838.79 1272.65 849.257 1272.65 860.158H1274.65H1276.65C1276.65 848.21 1271.96 836.738 1263.6 828.205L1262.17 829.604ZM1274.65 860.158H1272.65V960.819H1274.65H1276.65V860.158H1274.65ZM1274.65 960.819H1272.65C1272.65 976.935 1259.58 990 1243.46 990V992V994C1261.79 994 1276.65 979.144 1276.65 960.819H1274.65ZM1243.46 992V990H694.692V992V994H1243.46V992ZM694.692 992V990C678.577 990 665.512 976.935 665.512 960.819H663.512H661.512C661.512 979.144 676.367 994 694.692 994V992ZM663.512 960.819H665.512V860.158H663.512H661.512V960.819H663.512ZM663.512 860.158H665.512C665.512 849.257 669.786 838.79 677.416 831.004L675.987 829.604L674.559 828.205C666.196 836.738 661.512 848.21 661.512 860.158H663.512ZM675.987 829.604L677.416 831.004L957.145 545.566L955.717 544.166L954.288 542.766L674.559 828.205L675.987 829.604ZM1243.44 44.2285V46.2285C1259.56 46.2285 1272.62 59.2934 1272.62 75.4092L1274.62 75.4092L1276.62 75.4092C1276.62 57.0843 1261.76 42.2285 1243.44 42.2285V44.2285ZM1274.62 75.4092H1272.62V176.07H1274.62H1276.62V75.4092H1274.62ZM1274.62 176.07H1272.62C1272.62 186.971 1268.35 197.438 1260.72 205.224L1262.14 206.624L1263.57 208.024C1271.94 199.49 1276.62 188.018 1276.62 176.07H1274.62ZM1262.14 206.624L1260.72 205.224L980.987 490.663L982.415 492.062L983.843 493.462L1263.57 208.024L1262.14 206.624ZM982.415 492.062L980.987 490.663C974.435 497.348 963.671 497.348 957.12 490.663L955.691 492.062L954.263 493.462C962.383 501.748 975.724 501.748 983.843 493.462L982.415 492.062ZM955.691 492.062L957.12 490.663L677.39 205.224L675.962 206.624L674.534 208.024L954.263 493.462L955.691 492.062ZM675.962 206.624L677.39 205.224C669.76 197.438 665.486 186.971 665.486 176.07H663.486H661.486C661.486 188.018 666.171 199.49 674.534 208.024L675.962 206.624ZM663.486 176.07H665.486V75.4092H663.486H661.486V176.07H663.486ZM663.486 75.4092L665.486 75.4092C665.486 59.2935 678.55 46.2288 694.666 46.2285V44.2285V42.2285C676.341 42.2288 661.486 57.0845 661.486 75.4092L663.486 75.4092ZM694.666 44.2285V46.2285H1243.44V44.2285V42.2285H694.666V44.2285ZM594.953 44V46C611.069 46.0002 624.133 59.0649 624.133 75.1807H626.133H628.133C628.133 56.8559 613.278 42.0002 594.953 42V44ZM626.133 75.1807H624.133V175.842H626.133H628.133V75.1807H626.133ZM626.133 175.842H624.133C624.133 186.743 619.86 197.21 612.23 204.996L613.658 206.396L615.087 207.795C623.449 199.262 628.133 187.79 628.133 175.842H626.133ZM613.658 206.396L612.23 204.996L332.499 490.434L333.928 491.834L335.356 493.234L615.087 207.795L613.658 206.396ZM333.928 491.834L332.499 490.434C325.948 497.119 315.185 497.119 308.633 490.434L307.205 491.834L305.777 493.234C313.896 501.519 327.237 501.519 335.356 493.234L333.928 491.834ZM307.205 491.834L308.634 490.434L28.903 204.996L27.4746 206.396L26.0462 207.795L305.777 493.234L307.205 491.834ZM27.4746 206.396L28.903 204.996C21.2731 197.21 17 186.743 17 175.842H15H13C13 187.79 17.6834 199.262 26.0462 207.795L27.4746 206.396ZM15 175.842H17V75.1807H15H13V175.842H15ZM15 75.1807H17C17 59.0649 30.064 46.0001 46.1797 46L46.1797 44L46.1797 42C27.8548 42.0001 13 56.8558 13 75.1807H15ZM46.1797 44V46H594.953V44V42H46.1797V44Z" fill="#723E2A" mask="url(#path-1-inside-1_2529_2)"/>
</svg>
