<svg width="139" height="41" viewBox="0 0 139 41" fill="none" xmlns="http://www.w3.org/2000/svg">
<path d="M64.3979 23.9587V1.4458H71.9991C75.0653 1.4458 77.4915 1.90843 79.2774 2.83369C81.0634 3.7482 82.4836 5.09843 83.5379 6.88441C84.5923 8.67038 85.1195 10.6177 85.1195 12.7265C85.1195 14.2327 84.829 15.6744 84.248 17.0515C83.667 18.4287 82.8386 19.639 81.7627 20.6826C80.6653 21.7585 79.3904 22.5708 77.9379 23.1195C77.088 23.4531 76.308 23.679 75.5979 23.7973C74.8878 23.9049 73.5322 23.9587 71.531 23.9587H64.3979ZM71.6601 4.31842H67.6256V21.0861H71.757C73.3708 21.0861 74.6242 20.9785 75.5172 20.7633C76.4102 20.5374 77.1525 20.2577 77.7443 19.9241C78.3468 19.5799 78.8955 19.1603 79.3904 18.6654C80.9827 17.0515 81.7789 15.0127 81.7789 12.5489C81.7789 10.1282 80.9612 8.15395 79.3258 6.62619C78.7233 6.05597 78.0294 5.58796 77.244 5.22216C76.4694 4.85636 75.7324 4.61428 75.0331 4.49594C74.3337 4.37759 73.2094 4.31842 71.6601 4.31842Z" fill="white"/>
<path d="M86.9982 1.4458H90.2259V23.991H86.9982V1.4458Z" fill="white"/>
<path d="M111.642 1.4458H114.644V23.991H111.4V6.44867L104.46 15.1633H103.863L96.8593 6.44867V23.991H93.6316V1.4458H96.6656L104.17 10.7092L111.642 1.4458Z" fill="white"/>
<path d="M126.195 1.31656H128.47L138.556 23.9909H135.248L132.246 17.3096H122.66L119.82 23.9909H116.512L126.195 1.31656ZM130.923 14.437L127.292 6.27101L123.919 14.437H130.923Z" fill="white"/>
<path d="M71.5903 28.3574V30.0938H66.8007V33.0647H71.5903V34.8177H66.8007V39.8542H64.5787V28.3574H71.5903Z" fill="white"/>
<path d="M76.1316 28.3574V39.8542H73.9096V28.3574H76.1316Z" fill="white"/>
<path d="M80.7788 28.3574L87.6094 36.3813V28.3574H89.782V39.8542H87.8727L81.001 31.6986V39.8542H78.8284V28.3574H80.7788Z" fill="white"/>
<path d="M98.5014 28.3574L103.579 39.8542H101.234L100.04 37.0561H94.9297L93.8187 39.8542H91.4897L96.23 28.3574H98.5014ZM95.6045 35.369H99.3161L97.3739 30.8181L95.6045 35.369Z" fill="white"/>
<path d="M107.072 28.3574L113.903 36.3813V28.3574H116.076V39.8542H114.166L107.295 31.6986V39.8542H105.122V28.3574H107.072Z" fill="white"/>
<path d="M124.835 28.1677C125.488 28.1677 126.127 28.2418 126.752 28.3899C127.378 28.538 128.052 28.7904 128.777 29.147V31.2374C128.069 30.8314 127.413 30.5378 126.81 30.3568C126.212 30.1757 125.586 30.0852 124.933 30.0852C124.116 30.0852 123.378 30.2553 122.72 30.5954C122.061 30.9301 121.548 31.4047 121.181 32.0192C120.819 32.6336 120.638 33.3167 120.638 34.0683C120.638 34.8364 120.819 35.525 121.181 36.134C121.543 36.743 122.053 37.2148 122.711 37.5495C123.37 37.8787 124.11 38.0433 124.933 38.0433C125.564 38.0433 126.165 37.9527 126.736 37.7717C127.312 37.5906 128.036 37.2642 128.908 36.7924V38.8827C128.162 39.2722 127.476 39.5493 126.851 39.7139C126.225 39.8785 125.496 39.9608 124.662 39.9608C123.449 39.9608 122.366 39.7194 121.411 39.2366C120.457 38.7538 119.705 38.0597 119.156 37.1545C118.613 36.2437 118.341 35.2479 118.341 34.1671C118.341 33.0095 118.621 31.9698 119.181 31.0481C119.746 30.1263 120.52 29.4159 121.502 28.9166C122.489 28.4173 123.6 28.1677 124.835 28.1677Z" fill="white"/>
<path d="M138.514 28.3157V30.0522H133.305V33.0724H138.292V34.8089H133.305V38.0761H138.63V39.8125H131.083V28.3157H138.514Z" fill="white"/>
<path d="M0.000946045 1.3433C0.000946045 0.601414 0.60236 0 1.34424 0H24.9863C25.7281 0 26.3296 0.601414 26.3296 1.3433V5.67995C26.3296 6.17214 26.1366 6.64472 25.7921 6.99625L13.7409 19.2934C13.4249 19.6159 12.9056 19.6159 12.5896 19.2934L0.538402 6.99625C0.193903 6.64472 0.000946045 6.17214 0.000946045 5.67995V1.3433Z" fill="#D97E5A"/>
<path d="M54.27 39.4926C54.27 40.2345 53.6686 40.8359 52.9267 40.8359L29.2847 40.8359C28.5428 40.8359 27.9414 40.2345 27.9414 39.4926L27.9414 35.156C27.9414 34.6638 28.1344 34.1912 28.4789 33.8397L40.5301 21.5425C40.8461 21.2201 41.3653 21.2201 41.6814 21.5425L53.7326 33.8397C54.0771 34.1912 54.27 34.6638 54.27 35.156L54.27 39.4926Z" fill="#D97E5A"/>
<path d="M27.9424 1.3433C27.9424 0.601414 28.5438 0 29.2856 0H52.9277C53.6695 0 54.271 0.601414 54.271 1.3433V5.67995C54.271 6.17214 54.078 6.64472 53.7335 6.99625L41.6823 19.2934C41.3663 19.6159 40.847 19.6159 40.531 19.2934L28.4798 6.99625C28.1353 6.64472 27.9424 6.17214 27.9424 5.67995V1.3433Z" fill="#D97E5A"/>
<path d="M26.3286 39.4926C26.3286 40.2345 25.7272 40.8359 24.9853 40.8359L1.3433 40.8359C0.601417 40.8359 2.55597e-06 40.2345 2.62083e-06 39.4926L2.99995e-06 35.156C3.04298e-06 34.6638 0.19296 34.1912 0.537459 33.8397L12.5887 21.5425C12.9047 21.2201 13.4239 21.2201 13.7399 21.5425L25.7912 33.8397C26.1357 34.1912 26.3286 34.6638 26.3286 35.156L26.3286 39.4926Z" fill="#D97E5A"/>
</svg>
